<?xml version="1.0" encoding="UTF-8"?>
<svg id="Layer_1" data-name="Layer 1" xmlns="http://www.w3.org/2000/svg" viewBox="0 0 146.9 261.05">
  <defs>
    <style>
      .cls-1 {
        fill: #000;
        stroke-width: 0px;
      }
    </style>
  </defs>
  <path class="cls-1" d="M115.41,6.61h0c-1.86.52-1.06,3.42.8,2.89,2.09-.6,4.23-.65,6.35-.11,4.58,1.16,8.36,4.47,11.27,8.07,3.32,4.1,5.56,9.03,7.18,14.02,3.43,10.57,3.65,22.19,1.08,32.67-2.57,10.48-7.58,20.21-13.58,29.12-2.85,4.22-6.04,8.5-10.27,11.43-4.47,3.09-9.65,3.94-14.99,3.48-5.72-.49-11.38-2.15-16.88-3.86s-10.92-3.75-16.09-6.29c-7.87-3.87-16.04-9.89-17.74-19.05-1.07-5.74.92-11.59,3.14-16.8,2.11-4.94,4.49-9.78,7.11-14.46,5.14-9.17,11.37-17.84,18.91-25.13s16.54-13.22,26.51-16.58c4.8-1.62,9.79-2.64,14.85-2.89.85-.04,3.2-.48,3.55.37.49,1.2.46,2.85.66,4.13.49,3.1.97,6.21,1.45,9.32.29,1.9,3.18,1.09,2.89-.8-.5-3.28-1.01-6.55-1.52-9.82-.41-2.63-.4-6-3.77-6.26-2.67-.2-5.49.15-8.13.52-5.59.77-10.98,2.38-16.15,4.62-10.34,4.48-19.34,11.47-26.92,19.9s-13.72,18.18-18.67,28.29-10.43,21.94-4.44,32.81c5.07,9.2,15.33,14.19,24.69,17.88,5.8,2.29,11.79,4.13,17.86,5.59,5.71,1.37,11.75,2.3,17.56.99,10.98-2.49,17.79-13.34,23.09-22.4,5.87-10.03,10.21-20.92,11.39-32.68s-1.08-24.3-6.85-34.67c-4.67-8.41-13.88-17.28-24.34-14.33v.03Z"/>
  <path class="cls-1" d="M95.64,109.47h0c-.11-.8-1.15-1.25-1.85-1.05-.85.25-1.16,1.04-1.05,1.85,1.58,11.53,2.63,23.13,3.16,34.75.48,10.3.54,20.61.2,30.91-.17,5.08-.51,10.35-.23,15.24.28,4.89,1.32,9.73,3.03,14.19s3.91,8.71,6.06,12.96c2.36,4.66,4.73,9.33,7.09,13.99,4.73,9.33,9.45,18.65,14.18,27.98.87,1.73,3.46.21,2.59-1.51-5.29-10.43-10.58-20.87-15.87-31.31-2.33-4.61-4.68-9.21-7-13.82-2.11-4.18-4.14-8.42-5.47-12.92-2.87-9.76-1.43-20.18-1.24-30.18.39-20.41-.84-40.83-3.61-61.06v-.02Z"/>
  <path class="cls-1" d="M98.86,198.95h0c.59-1.85-2.31-2.63-2.89-.8-5.59,17.66-13.08,34.68-22.38,50.71-.97,1.67,1.62,3.18,2.59,1.51,9.43-16.25,17.02-33.53,22.69-51.43h-.01Z"/>
  <path class="cls-1" d="M100.79,202.91c.48-1.88-2.42-2.67-2.89-.8-.99,3.91-1.47,7.96-1.41,11.99.03,1.93,3.03,1.93,3,0-.06-3.78.37-7.52,1.3-11.19h0Z"/>
  <path class="cls-1" d="M97.62,128.48h0c-1.64-1.02-3.15,1.58-1.51,2.59,6.22,3.85,11.48,9.04,16.16,14.63,4.23,5.05,7.92,10.48,10.44,16.76s3.78,13,4.62,19.69c1.81,14.47,2.95,29.04,4.38,43.55.19,1.91,3.19,1.92,3,0-.84-8.59-1.69-17.17-2.54-25.75-1.38-13.93-1.89-28.63-7.96-41.49-2.88-6.12-6.91-11.62-11.37-16.7s-9.45-9.72-15.21-13.28h-.01Z"/>
  <path class="cls-1" d="M94.79,134h0c1.69.93,3.2-1.66,1.51-2.59-8.45-4.63-16.9-9.27-25.34-13.93-6.87-3.8-13.93-7.76-20.22-12.1s-11.96-9.39-17.29-14.86c-10.25-10.52-19.45-22.14-31.3-30.96-1.55-1.15-3.04,1.45-1.51,2.59,6.66,4.95,12.48,10.91,18.11,16.97,5,5.39,9.64,10.68,15.11,16.07s11.21,10.08,17.82,14.43,13.57,8.13,20.5,11.95c7.53,4.15,15.07,8.29,22.61,12.42h0Z"/>
  <path class="cls-1" d="M123.81,34.36c1.93,0,1.93-3,0-3s-1.93,3,0,3h0Z"/>
  <path class="cls-1" d="M100.73,33.78c1.93,0,1.93-3,0-3s-1.93,3,0,3h0Z"/>
  <path class="cls-1" d="M121.64,67.8c.2-1.92-2.8-1.9-3,0-.6,5.79-5.5,9.87-10.85,11.28-4.7,1.24-9.95,1.07-14.68.03-4.48-.99-8.82-2.9-12.21-6.05-7.93-7.37-7.83-18.99-7.68-29,.03-1.93-2.97-1.93-3,0-.1,6.69-.16,13.6,1.83,20.05,1.62,5.25,4.67,9.76,9.11,13.02,4.18,3.08,9.29,4.76,14.4,5.43,5.65.74,12.04.37,17-2.06s8.51-7.18,9.08-12.7h0Z"/>
</svg>