<?xml version="1.0" encoding="UTF-8"?>
<svg id="Layer_1" data-name="Layer 1" xmlns="http://www.w3.org/2000/svg" viewBox="0 0 97.51 261.05">
  <defs>
    <style>
      .cls-1 {
        fill: #000;
        stroke-width: 0px;
      }
    </style>
  </defs>
  <path class="cls-1" d="M31.49,6.58c-10.46-2.95-19.67,5.92-24.34,14.33C1.38,31.28-.88,43.82.3,55.58s5.52,22.65,11.39,32.68c5.3,9.06,12.11,19.91,23.09,22.4,5.81,1.31,11.85.38,17.56-.99,6.07-1.46,12.06-3.3,17.86-5.59,9.36-3.69,19.62-8.68,24.69-17.88,5.99-10.87.51-22.7-4.44-32.81s-11.09-19.86-18.67-28.29-16.58-15.42-26.92-19.9c-5.17-2.24-10.56-3.85-16.15-4.62C26.07.21,23.25-.14,20.58.06c-3.37.26-3.36,3.63-3.77,6.26-.51,3.27-1.02,6.54-1.52,9.82-.29,1.89,2.6,2.7,2.89.8.48-3.11.96-6.22,1.45-9.32.2-1.28.17-2.93.66-4.13.35-.85,2.7-.41,3.55-.37,5.06.25,10.05,1.27,14.85,2.89,9.97,3.36,18.97,9.29,26.51,16.58s13.77,15.96,18.91,25.13c2.62,4.68,5,9.52,7.11,14.46,2.22,5.21,4.21,11.06,3.14,16.8-1.7,9.16-9.87,15.18-17.74,19.05-5.17,2.54-10.59,4.58-16.09,6.29s-11.16,3.37-16.88,3.86c-5.34.46-10.52-.39-14.99-3.48-4.23-2.93-7.42-7.21-10.27-11.43-6-8.91-11.01-18.64-13.58-29.12s-2.35-22.1,1.08-32.67c1.62-4.99,3.86-9.92,7.18-14.02,2.91-3.6,6.69-6.91,11.27-8.07,2.12-.54,4.26-.49,6.35.11,1.86.53,2.66-2.37.8-2.89h0v-.03Z"/>
  <path class="cls-1" d="M51.27,109.49c-2.77,20.23-4,40.65-3.61,61.06.19,10,1.63,20.42-1.24,30.18-1.33,4.5-3.36,8.74-5.47,12.92-2.32,4.61-4.67,9.21-7,13.82-5.29,10.44-10.58,20.88-15.87,31.31-.87,1.72,1.72,3.24,2.59,1.51,4.73-9.33,9.45-18.65,14.18-27.98,2.36-4.66,4.73-9.33,7.09-13.99,2.15-4.25,4.35-8.5,6.06-12.96s2.75-9.3,3.03-14.19-.06-10.16-.23-15.24c-.34-10.3-.28-20.61.2-30.91.53-11.62,1.58-23.22,3.16-34.75.11-.81-.2-1.6-1.05-1.85-.7-.2-1.74.25-1.85,1.05h0v.02Z"/>
  <path class="cls-1" d="M48.03,198.94c5.67,17.9,13.26,35.18,22.69,51.43.97,1.67,3.56.16,2.59-1.51-9.3-16.03-16.79-33.05-22.38-50.71-.58-1.83-3.48-1.05-2.89.8h-.01Z"/>
  <path class="cls-1" d="M46.11,202.91c.93,3.67,1.36,7.41,1.3,11.19-.03,1.93,2.97,1.93,3,0,.06-4.03-.42-8.08-1.41-11.99-.47-1.87-3.37-1.08-2.89.8h0Z"/>
  <path class="cls-1" d="M49.27,128.48c-5.76,3.56-10.75,8.2-15.21,13.28s-8.49,10.58-11.37,16.7c-6.07,12.86-6.58,27.56-7.96,41.49-.85,8.58-1.7,17.16-2.54,25.75-.19,1.92,2.81,1.91,3,0,1.43-14.51,2.57-29.08,4.38-43.55.84-6.69,2.1-13.41,4.62-19.69s6.21-11.71,10.44-16.76c4.68-5.59,9.94-10.78,16.16-14.63,1.64-1.01.13-3.61-1.51-2.59h-.01Z"/>
  <path class="cls-1" d="M51.7,131.29c3.05,4.48,6.09,8.97,9.14,13.47,2.8,4.14,5.61,8.24,8.28,12.96s4.99,9.81,7.2,15.65,4.09,11.58,6.11,17.43c2.27,6.57,4.63,13.04,7.32,18.41.62,1.24.02,4.06-.61,2.81-4.79-9.57-8.51-22.17-12.65-33.58-2.15-5.93-4.44-11.41-6.99-16.12-2.54-4.71-5.39-9-8.17-13.12-3.41-5.05-6.82-10.09-10.24-15.11-.68-1.01-.07-3.82.61-2.81h0Z"/>
  <path class="cls-1" d="M23.09,34.36c1.93,0,1.93-3,0-3s-1.93,3,0,3h0Z"/>
  <path class="cls-1" d="M46.17,33.78c1.93,0,1.93-3,0-3s-1.93,3,0,3h0Z"/>
  <path class="cls-1" d="M25.26,67.8c.57,5.52,4.12,10.27,9.08,12.7s11.35,2.8,17,2.06c5.11-.67,10.22-2.35,14.4-5.43,4.44-3.26,7.49-7.77,9.11-13.02,1.99-6.45,1.93-13.36,1.83-20.05-.03-1.93-3.03-1.93-3,0,.15,10.01.25,21.63-7.68,29-3.39,3.15-7.73,5.06-12.21,6.05-4.73,1.04-9.98,1.21-14.68-.03-5.35-1.41-10.25-5.49-10.85-11.28-.2-1.9-3.2-1.92-3,0h0Z"/>
</svg>