<?xml version="1.0" encoding="UTF-8"?>
<svg id="Layer_1" data-name="Layer 1" xmlns="http://www.w3.org/2000/svg" version="1.1" viewBox="0 0 146.9 261.1">
  <defs>
    <style>
      .cls-1 {
        fill: #000;
        stroke-width: 0px;
      }
    </style>
  </defs>
  <path class="cls-1" d="M31.5,6.6c-10.5-3-19.7,5.9-24.3,14.3C1.4,31.3-.9,43.8.3,55.6s5.5,22.7,11.4,32.7c5.3,9.1,12.1,19.9,23.1,22.4,5.8,1.3,11.8.4,17.6-1,6.1-1.5,12.1-3.3,17.9-5.6,9.4-3.7,19.6-8.7,24.7-17.9,6-10.9.5-22.7-4.4-32.8s-11.1-19.9-18.7-28.3-16.6-15.4-26.9-19.9c-5.2-2.2-10.6-3.8-16.1-4.6C26.1.2,23.2-.1,20.6,0c-3.4.3-3.4,3.6-3.8,6.3-.5,3.3-1,6.5-1.5,9.8-.3,1.9,2.6,2.7,2.9.8.5-3.1,1-6.2,1.5-9.3.2-1.3.2-2.9.7-4.1.4-.8,2.7-.4,3.5-.4,5.1.2,10.1,1.3,14.9,2.9,10,3.4,19,9.3,26.5,16.6s13.8,16,18.9,25.1c2.6,4.7,5,9.5,7.1,14.5,2.2,5.2,4.2,11.1,3.1,16.8-1.7,9.2-9.9,15.2-17.7,19.1-5.2,2.5-10.6,4.6-16.1,6.3s-11.2,3.4-16.9,3.9c-5.3.5-10.5-.4-15-3.5-4.2-2.9-7.4-7.2-10.3-11.4-6-8.9-11-18.6-13.6-29.1s-2.3-22.1,1.1-32.7c1.6-5,3.9-9.9,7.2-14,2.9-3.6,6.7-6.9,11.3-8.1,2.1-.5,4.3-.5,6.4.1,1.9.5,2.7-2.4.8-2.9h0Z"/>
  <path class="cls-1" d="M51.3,109.5c-2.8,20.2-4,40.7-3.6,61.1.2,10,1.6,20.4-1.2,30.2-1.3,4.5-3.4,8.7-5.5,12.9-2.3,4.6-4.7,9.2-7,13.8-5.3,10.4-10.6,20.9-15.9,31.3-.9,1.7,1.7,3.2,2.6,1.5,4.7-9.3,9.5-18.6,14.2-28,2.4-4.7,4.7-9.3,7.1-14,2.2-4.2,4.3-8.5,6.1-13s2.8-9.3,3-14.2,0-10.2-.2-15.2c-.3-10.3-.3-20.6.2-30.9.5-11.6,1.6-23.2,3.2-34.8.1-.8-.2-1.6-1-1.8-.7-.2-1.7.2-1.8,1.1h0Z"/>
  <path class="cls-1" d="M48.5,198.6c14.6,12.8,31.1,23.4,48.2,32.6,5.6,3,11.3,5.9,17.1,8.7,1.7.8,3.3-1.8,1.5-2.6-18.6-8.9-36.7-19.1-53.2-31.4-4-3-7.8-6.1-11.5-9.3-1.4-1.3-3.6.8-2.1,2.1h0Z"/>
  <path class="cls-1" d="M46.1,202.9c.9,3.7,1.4,7.4,1.3,11.2,0,1.9,3,1.9,3,0,0-4-.4-8.1-1.4-12-.5-1.9-3.4-1.1-2.9.8h0Z"/>
  <path class="cls-1" d="M49.3,128.5c-5.8,3.6-10.8,8.2-15.2,13.3s-8.5,10.6-11.4,16.7c-6.1,12.9-6.6,27.6-8,41.5-.9,8.6-1.7,17.2-2.5,25.8-.2,1.9,2.8,1.9,3,0,1.4-14.5,2.6-29.1,4.4-43.6.8-6.7,2.1-13.4,4.6-19.7s6.2-11.7,10.4-16.8c4.7-5.6,9.9-10.8,16.2-14.6,1.6-1,.1-3.6-1.5-2.6h0Z"/>
  <path class="cls-1" d="M52.1,134c7.5-4.1,15.1-8.3,22.6-12.4,6.9-3.8,13.9-7.6,20.5-11.9,3-2,5.8-4,8.5-6.2,4.6-3.7,7.8-6.8,9.3-8.2,16.7-16.5,25.1-24.7,33.2-33h0s.2-2.8-.6-2.9c-.3,0-.6,0-.9.3-2.3,1.7-19.6,23.6-31.3,31-9.7,6.1-12.9.6-22.3,7.7-9,6.7-6.3,11.9-15.2,19.3-11.2,9.4-25.4,9.3-25.3,13.9,0,1.1.9,2.1,1.5,2.6Z"/>
  <path class="cls-1" d="M23.1,34.4c1.9,0,1.9-3,0-3s-1.9,3,0,3h0Z"/>
  <path class="cls-1" d="M46.2,33.8c1.9,0,1.9-3,0-3s-1.9,3,0,3h0Z"/>
  <path class="cls-1" d="M25.3,67.8c.6,5.5,4.1,10.3,9.1,12.7s11.4,2.8,17,2.1c5.1-.7,10.2-2.3,14.4-5.4,4.4-3.3,7.5-7.8,9.1-13,2-6.5,1.9-13.4,1.8-20,0-1.9-3-1.9-3,0,.2,10,.2,21.6-7.7,29-3.4,3.2-7.7,5.1-12.2,6.1-4.7,1-10,1.2-14.7,0-5.3-1.4-10.2-5.5-10.9-11.3-.2-1.9-3.2-1.9-3,0h0Z"/>
  <path class="cls-1" d="M185.5,134.1"/>
</svg>